<?xml version="1.0" encoding="utf-8"?>
<!-- Generator: Adobe Illustrator 21.0.2, SVG Export Plug-In . SVG Version: 6.00 Build 0)  -->
<svg version="1.1" id="Layer_1" xmlns="http://www.w3.org/2000/svg" xmlns:xlink="http://www.w3.org/1999/xlink" x="0px" y="0px"
	 viewBox="0 0 519.7 726" style="enable-background:new 0 0 519.7 726;" xml:space="preserve">
<style type="text/css">
	.st0{fill:#FFFFFF;stroke:#DBDBDB;stroke-miterlimit:10;}
	.st1{fill:none;stroke:#DBDBDB;stroke-width:3;stroke-linecap:round;stroke-linejoin:round;stroke-miterlimit:10;}
	.st2{fill:#FFFFFF;stroke:#DCDBDB;stroke-width:3;stroke-miterlimit:10;}
	.st3{fill:#F2F2F2;stroke:#DCDBDB;stroke-width:2;stroke-miterlimit:10;}
	.st4{fill:#FFFFFF;stroke:#DCDBDB;stroke-width:4;stroke-miterlimit:10;}
	.st5{fill:#F2F1F2;}
	.st6{fill:#DCDBDB;}
</style>
<g>
	<path class="st0" d="M518,99.3c0,0.6-0.5,1.2-1.2,1.2h-23.1c-0.6,0-1.2-0.5-1.2-1.2V67.8c0-0.6,0.5-1.2,1.2-1.2h23.1
		c0.6,0,1.2,0.5,1.2,1.2V99.3z"/>
	<path class="st1" d="M518,99.3c0,0.6-0.5,1.2-1.2,1.2h-23.1c-0.6,0-1.2-0.5-1.2-1.2V67.8c0-0.6,0.5-1.2,1.2-1.2h23.1
		c0.6,0,1.2,0.5,1.2,1.2V99.3z"/>
</g>
<g>
	<path class="st0" d="M458.5-4.2c0.6,0,1.2,0.5,1.2,1.2v23.1c0,0.6-0.5,1.2-1.2,1.2H427c-0.6,0-1.2-0.5-1.2-1.2V-3
		c0-0.6,0.5-1.2,1.2-1.2H458.5z"/>
	<path class="st1" d="M458.5-4.2c0.6,0,1.2,0.5,1.2,1.2v23.1c0,0.6-0.5,1.2-1.2,1.2H427c-0.6,0-1.2-0.5-1.2-1.2V-3
		c0-0.6,0.5-1.2,1.2-1.2H458.5z"/>
</g>
<g>
	<path class="st0" d="M518,141c0,0.6-0.5,1.2-1.2,1.2h-23c-0.6,0-1.2-0.5-1.2-1.2v-31.5c0-0.6,0.5-1.2,1.2-1.2h23.1
		c0.6,0,1.2,0.5,1.2,1.2L518,141L518,141z"/>
	<path class="st1" d="M518,141c0,0.6-0.5,1.2-1.2,1.2h-23c-0.6,0-1.2-0.5-1.2-1.2v-31.5c0-0.6,0.5-1.2,1.2-1.2h23.1
		c0.6,0,1.2,0.5,1.2,1.2L518,141L518,141z"/>
</g>
<path class="st2" d="M472.4,724.5h-431c-22,0-40-18-40-40v-643c0-22,18-40,40-40h431c22,0,40,18,40,40v643
	C512.4,706.5,494.4,724.5,472.4,724.5z"/>
<circle id="XMLID_106_" class="st3" cx="255.7" cy="32.7" r="4"/>
<circle class="st4" cx="255.7" cy="691.6" r="17.9"/>
<g id="Content_Layer_1_">
	<g id="XMLID_48_">
		<path class="st5" d="M38.1,659.7c-2.2,0-4-1.8-4-4V70.4c0-2.2,1.8-4,4-4h437.5c2.2,0,4,1.8,4,4v585.3c0,2.2-1.8,4-4,4H38.1z"/>
		<path class="st6" d="M475.6,67.4c1.7,0,3,1.3,3,3v585.3c0,1.7-1.3,3-3,3H38.1c-1.7,0-3-1.3-3-3V70.4c0-1.7,1.3-3,3-3H475.6
			 M475.6,65.4H38.1c-2.8,0-5,2.2-5,5v585.3c0,2.8,2.2,5,5,5h437.5c2.8,0,5-2.2,5-5V70.4C480.6,67.6,478.4,65.4,475.6,65.4
			L475.6,65.4z"/>
	</g>
</g>
</svg>
