<?xml version="1.0" encoding="utf-8"?>
<!-- Generator: Adobe Illustrator 21.0.2, SVG Export Plug-In . SVG Version: 6.00 Build 0)  -->
<svg version="1.1" id="Layer_1" xmlns="http://www.w3.org/2000/svg" xmlns:xlink="http://www.w3.org/1999/xlink" x="0px" y="0px"
	 viewBox="0 0 595.3 841.9" style="enable-background:new 0 0 595.3 841.9;" xml:space="preserve">
<style type="text/css">
	.st0{fill:#FFFFFF;stroke:#DBDBDB;stroke-miterlimit:10;}
	.st1{fill:none;stroke:#DBDBDB;stroke-width:3;stroke-linecap:round;stroke-linejoin:round;stroke-miterlimit:10;}
	.st2{fill:#FFFFFF;stroke:#DCDBDB;stroke-width:3;stroke-miterlimit:10;}
	.st3{fill-rule:evenodd;clip-rule:evenodd;fill:#F2F2F2;stroke:#E5E5E5;stroke-width:2;stroke-miterlimit:10;}
	.st4{fill:#FFFFFF;stroke:#DCDBDB;stroke-width:4;stroke-miterlimit:10;}
	.st5{fill:#F2F1F2;}
	.st6{fill:#DCDBDB;}
</style>
<g>
	<path class="st0" d="M556.2,160.2c0,0.6-0.5,1.2-1.2,1.2h-23.1c-0.6,0-1.2-0.5-1.2-1.2v-31.5c0-0.6,0.5-1.2,1.2-1.2H555
		c0.6,0,1.2,0.5,1.2,1.2V160.2z"/>
	<path class="st1" d="M556.2,160.2c0,0.6-0.5,1.2-1.2,1.2h-23.1c-0.6,0-1.2-0.5-1.2-1.2v-31.5c0-0.6,0.5-1.2,1.2-1.2H555
		c0.6,0,1.2,0.5,1.2,1.2V160.2z"/>
</g>
<g>
	<path class="st0" d="M496.7,56.7c0.6,0,1.2,0.5,1.2,1.2V81c0,0.6-0.5,1.2-1.2,1.2h-31.5c-0.6,0-1.2-0.5-1.2-1.2V57.9
		c0-0.6,0.5-1.2,1.2-1.2H496.7z"/>
	<path class="st1" d="M496.7,56.7c0.6,0,1.2,0.5,1.2,1.2V81c0,0.6-0.5,1.2-1.2,1.2h-31.5c-0.6,0-1.2-0.5-1.2-1.2V57.9
		c0-0.6,0.5-1.2,1.2-1.2H496.7z"/>
</g>
<g>
	<path class="st0" d="M556.2,201.9c0,0.6-0.5,1.2-1.2,1.2H532c-0.6,0-1.2-0.5-1.2-1.2v-31.5c0-0.6,0.5-1.2,1.2-1.2h23.1
		c0.6,0,1.2,0.5,1.2,1.2V201.9z"/>
	<path class="st1" d="M556.2,201.9c0,0.6-0.5,1.2-1.2,1.2H532c-0.6,0-1.2-0.5-1.2-1.2v-31.5c0-0.6,0.5-1.2,1.2-1.2h23.1
		c0.6,0,1.2,0.5,1.2,1.2V201.9z"/>
</g>
<path class="st2" d="M510.6,785.4h-431c-22,0-40-18-40-40v-643c0-22,18-40,40-40h431c22,0,40,18,40,40v643
	C550.6,767.4,532.6,785.4,510.6,785.4z"/>
<circle id="XMLID_106_" class="st3" cx="293.9" cy="93.6" r="4"/>
<circle class="st4" cx="293.9" cy="752.5" r="17.9"/>
<g id="Content_Layer_1_">
	<g id="XMLID_48_">
		<path class="st5" d="M76.3,720.6c-2.2,0-4-1.8-4-4V131.3c0-2.2,1.8-4,4-4h437.5c2.2,0,4,1.8,4,4v585.3c0,2.2-1.8,4-4,4H76.3z"/>
		<path class="st6" d="M513.8,128.3c1.7,0,3,1.3,3,3v585.3c0,1.7-1.3,3-3,3H76.3c-1.7,0-3-1.3-3-3V131.3c0-1.7,1.3-3,3-3H513.8
			 M513.8,126.3H76.3c-2.8,0-5,2.2-5,5v585.3c0,2.8,2.2,5,5,5h437.5c2.8,0,5-2.2,5-5V131.3C518.8,128.5,516.6,126.3,513.8,126.3
			L513.8,126.3z"/>
	</g>
</g>
</svg>
