<?xml version="1.0" encoding="utf-8"?>
<!-- Generator: Adobe Illustrator 21.0.2, SVG Export Plug-In . SVG Version: 6.00 Build 0)  -->
<svg version="1.1" id="Layer_1" xmlns="http://www.w3.org/2000/svg" xmlns:xlink="http://www.w3.org/1999/xlink" x="0px" y="0px"
	 viewBox="0 0 595.3 841.9" style="enable-background:new 0 0 595.3 841.9;" xml:space="preserve">
<style type="text/css">
	.st0{fill:#FFFFFF;}
	.st1{fill:none;stroke:#D0D2D3;stroke-width:3;stroke-linecap:round;stroke-linejoin:round;stroke-miterlimit:10;}
	.st2{fill:#FFFFFF;stroke:#D0D2D3;stroke-width:3;stroke-miterlimit:10;}
	.st3{fill:#F1F1F2;}
	.st4{fill:none;stroke:#DBDBDB;stroke-width:2;stroke-miterlimit:10;}
	.st5{fill:#F1F1F2;stroke:#DBDBDB;stroke-width:1.5;stroke-miterlimit:10;}
	.st6{fill:#DCDBDB;}
	.st7{fill:#E5E5E5;stroke:#DBDBDB;stroke-width:2;stroke-miterlimit:10;}
</style>
<g id="iPhone_6_-_4.7_x27__x27_">
	<g>
		<path class="st0" d="M147.2,150.4c0,1.1-0.9,2-2,2H105c-1.1,0-2-0.9-2-2v-29.1c0-1.1,0.9-2,2-2h40.2c1.1,0,2,0.9,2,2V150.4z"/>
		<path class="st1" d="M147.2,150.4c0,1.1-0.9,2-2,2H105c-1.1,0-2-0.9-2-2v-29.1c0-1.1,0.9-2,2-2h40.2c1.1,0,2,0.9,2,2V150.4z"/>
	</g>
	<g>
		<path class="st0" d="M147.2,246.4c0,1.1-0.9,2-2,2h-40c-1.1,0-2-0.9-2-2v-54.6c0-1.1,0.9-2,2-2h40c1.1,0,2,0.9,2,2V246.4z"/>
		<path class="st1" d="M147.2,246.4c0,1.1-0.9,2-2,2h-40c-1.1,0-2-0.9-2-2v-54.6c0-1.1,0.9-2,2-2h40c1.1,0,2,0.9,2,2V246.4z"/>
	</g>
	<g>
		<path class="st0" d="M482.3,245.4c0,1.6-1.3,3-3,3h-38c-1.7,0-3-1.4-3-3v-52.6c0-1.6,1.3-3,3-3h38c1.7,0,3,1.4,3,3V245.4z"/>
		<path class="st1" d="M482.3,245.4c0,1.6-1.3,3-3,3h-38c-1.7,0-3-1.4-3-3v-52.6c0-1.6,1.3-3,3-3h38c1.7,0,3,1.4,3,3V245.4z"/>
	</g>
	<g>
		<path class="st0" d="M147.3,318.6c0,1.1-0.9,2-2,2h-40c-1.1,0-2-0.9-2-2V264c0-1.1,0.9-2,2-2h40c1.1,0,2,0.9,2,2V318.6z"/>
		<path class="st1" d="M147.3,318.6c0,1.1-0.9,2-2,2h-40c-1.1,0-2-0.9-2-2V264c0-1.1,0.9-2,2-2h40c1.1,0,2,0.9,2,2V318.6z"/>
	</g>
	<path class="st2" d="M476.5,755.5c0,28.6-23.2,51.9-51.9,51.9H160.3c-28.6,0-51.9-23.2-51.9-51.9V84.3c0-28.6,23.2-51.9,51.9-51.9
		h264.3c28.6,0,51.9,23.2,51.9,51.9L476.5,755.5L476.5,755.5z"/>
	<g>
		<path class="st3" d="M464.2,715.4c0,1.6-1.3,3-3,3h-338c-1.6,0-3-1.4-3-3v-600c0-1.6,1.4-3,3-3h338c1.7,0,3,1.4,3,3V715.4z"/>
		<path class="st4" d="M464.2,715.4c0,1.6-1.3,3-3,3h-338c-1.6,0-3-1.4-3-3v-600c0-1.6,1.4-3,3-3h338c1.7,0,3,1.4,3,3V715.4z"/>
	</g>
	<circle class="st5" cx="230" cy="74.2" r="6.6"/>
	<circle class="st5" cx="291.6" cy="47.8" r="4"/>
	<circle class="st6" cx="291.6" cy="763.4" r="30.1"/>
	<circle class="st0" cx="291.6" cy="763.4" r="26.4"/>
	<path class="st7" d="M321.2,74.4c0,1.6-1.3,3-3,3h-54.1c-1.6,0-3-1.3-3-3v-0.1c0-1.6,1.3-3,3-3h54.1
		C319.9,71.4,321.2,72.7,321.2,74.4L321.2,74.4z"/>
</g>
</svg>
