<?xml version="1.0" encoding="utf-8"?>
<!-- Generator: Adobe Illustrator 21.0.2, SVG Export Plug-In . SVG Version: 6.00 Build 0)  -->
<svg version="1.1" id="Layer_1" xmlns="http://www.w3.org/2000/svg" xmlns:xlink="http://www.w3.org/1999/xlink" x="0px" y="0px"
	 viewBox="0 0 595.3 841.9" style="enable-background:new 0 0 595.3 841.9;" xml:space="preserve">
<style type="text/css">
	.st0{fill:#FFFFFF;}
	.st1{fill:none;stroke:#D0D2D3;stroke-width:3;stroke-linecap:round;stroke-linejoin:round;stroke-miterlimit:10;}
	.st2{fill:#FFFFFF;stroke:#D0D2D3;stroke-width:3;stroke-miterlimit:10;}
	.st3{fill:#F2F2F2;}
	.st4{fill:none;stroke:#DCDBDB;stroke-width:2;stroke-miterlimit:10;}
	.st5{fill:#F89521;}
</style>
<g>
	<g>
		<path class="st0" d="M153.2,151.4c0,1.1-0.9,2-2,2H111c-1.1,0-2-0.9-2-2v-29.1c0-1.1,0.9-2,2-2h40.2c1.1,0,2,0.9,2,2V151.4z"/>
		<path class="st1" d="M153.2,151.4c0,1.1-0.9,2-2,2H111c-1.1,0-2-0.9-2-2v-29.1c0-1.1,0.9-2,2-2h40.2c1.1,0,2,0.9,2,2V151.4z"/>
	</g>
	<g>
		<path class="st0" d="M153.2,247.4c0,1.1-0.9,2-2,2h-40c-1.1,0-2-0.9-2-2v-54.6c0-1.1,0.9-2,2-2h40c1.1,0,2,0.9,2,2V247.4z"/>
		<path class="st1" d="M153.2,247.4c0,1.1-0.9,2-2,2h-40c-1.1,0-2-0.9-2-2v-54.6c0-1.1,0.9-2,2-2h40c1.1,0,2,0.9,2,2V247.4z"/>
	</g>
	<g>
		<path class="st0" d="M488.3,246.4c0,1.6-1.3,3-3,3h-38c-1.7,0-3-1.4-3-3v-52.6c0-1.6,1.3-3,3-3h38c1.7,0,3,1.4,3,3V246.4z"/>
		<path class="st1" d="M488.3,246.4c0,1.6-1.3,3-3,3h-38c-1.7,0-3-1.4-3-3v-52.6c0-1.6,1.3-3,3-3h38c1.7,0,3,1.4,3,3V246.4z"/>
	</g>
	<g>
		<path class="st0" d="M153.3,319.6c0,1.1-0.9,2-2,2h-40c-1.1,0-2-0.9-2-2v-54.6c0-1.1,0.9-2,2-2h40c1.1,0,2,0.9,2,2V319.6z"/>
		<path class="st1" d="M153.3,319.6c0,1.1-0.9,2-2,2h-40c-1.1,0-2-0.9-2-2v-54.6c0-1.1,0.9-2,2-2h40c1.1,0,2,0.9,2,2V319.6z"/>
	</g>
	<path class="st2" d="M482.5,756.5c0,28.6-23.2,51.9-51.9,51.9H166.3c-28.6,0-51.9-23.2-51.9-51.9V85.3c0-28.6,23.2-51.9,51.9-51.9
		h264.3c28.6,0,51.9,23.2,51.9,51.9V756.5z"/>
	<g>
		<path class="st3" d="M470.2,716.4c0,1.6-1.4,3-3,3h-338c-1.7,0-3-1.4-3-3v-600c0-1.7,1.3-3,3-3h338c1.6,0,3,1.3,3,3V716.4z"/>
		<path class="st4" d="M470.2,716.4c0,1.6-1.4,3-3,3h-338c-1.7,0-3-1.4-3-3v-600c0-1.7,1.3-3,3-3h338c1.6,0,3,1.3,3,3V716.4z"/>
	</g>
	<circle class="st5" cx="297.6" cy="764.4" r="30.1"/>
	<circle class="st0" cx="297.6" cy="764.4" r="26.4"/>
</g>
</svg>
