<?xml version="1.0" encoding="utf-8"?>
<!-- Generator: Adobe Illustrator 21.0.2, SVG Export Plug-In . SVG Version: 6.00 Build 0)  -->
<svg version="1.1" id="Layer_1" xmlns="http://www.w3.org/2000/svg" xmlns:xlink="http://www.w3.org/1999/xlink" x="0px" y="0px"
	 viewBox="0 0 382.6 777.9" style="enable-background:new 0 0 382.6 777.9;" xml:space="preserve">
<style type="text/css">
	.st0{fill:#FFFFFF;stroke:#DBDBDB;stroke-miterlimit:10;}
	.st1{fill:none;stroke:#DBDBDB;stroke-width:3;stroke-linecap:round;stroke-linejoin:round;stroke-miterlimit:10;}
	.st2{fill:#FFFFFF;stroke:#DCDBDB;stroke-width:3;stroke-miterlimit:10;}
	.st3{fill:#F1F1F2;stroke:#DBDBDB;stroke-miterlimit:10;}
	.st4{fill:none;stroke:#DBDBDB;stroke-width:2;stroke-miterlimit:10;}
	.st5{fill:#F1F1F2;stroke:#DCDBDB;stroke-width:1.5;stroke-miterlimit:10;}
	.st6{fill:#DCDBDB;}
	.st7{fill:#FFFFFF;}
	.st8{fill:#E5E5E5;stroke:#DCDBDB;stroke-width:2;stroke-miterlimit:10;}
</style>
<g id="iPhone_6_-_4.7_x27__x27_">
	<g>
		<path class="st0" d="M45.8,119.4c0,1.1-0.9,2-2,2H3.6c-1.1,0-2-0.9-2-2V90.3c0-1.1,0.9-2,2-2h40.2c1.1,0,2,0.9,2,2V119.4z"/>
		<path class="st1" d="M45.8,119.4c0,1.1-0.9,2-2,2H3.6c-1.1,0-2-0.9-2-2V90.3c0-1.1,0.9-2,2-2h40.2c1.1,0,2,0.9,2,2V119.4z"/>
	</g>
	<g>
		<path class="st0" d="M45.8,215.4c0,1.1-0.9,2-2,2h-40c-1.1,0-2-0.9-2-2v-54.6c0-1.1,0.9-2,2-2h40c1.1,0,2,0.9,2,2V215.4z"/>
		<path class="st1" d="M45.8,215.4c0,1.1-0.9,2-2,2h-40c-1.1,0-2-0.9-2-2v-54.6c0-1.1,0.9-2,2-2h40c1.1,0,2,0.9,2,2V215.4z"/>
	</g>
	<g>
		<path class="st0" d="M380.9,214.4c0,1.6-1.3,3-3,3h-38c-1.7,0-3-1.4-3-3v-52.6c0-1.6,1.3-3,3-3h38c1.7,0,3,1.4,3,3V214.4z"/>
		<path class="st1" d="M380.9,214.4c0,1.6-1.3,3-3,3h-38c-1.7,0-3-1.4-3-3v-52.6c0-1.6,1.3-3,3-3h38c1.7,0,3,1.4,3,3V214.4z"/>
	</g>
	<g>
		<path class="st0" d="M45.9,287.6c0,1.1-0.9,2-2,2h-40c-1.1,0-2-0.9-2-2V233c0-1.1,0.9-2,2-2h40c1.1,0,2,0.9,2,2V287.6z"/>
		<path class="st1" d="M45.9,287.6c0,1.1-0.9,2-2,2h-40c-1.1,0-2-0.9-2-2V233c0-1.1,0.9-2,2-2h40c1.1,0,2,0.9,2,2V287.6z"/>
	</g>
	<path class="st2" d="M375.1,724.5c0,28.6-23.2,51.9-51.9,51.9H58.9C30.3,776.4,7,753.2,7,724.5V53.3C7,24.7,30.2,1.4,58.9,1.4
		h264.3c28.6,0,51.9,23.2,51.9,51.9L375.1,724.5L375.1,724.5z"/>
	<g>
		<path class="st3" d="M362.8,684.4c0,1.6-1.3,3-3,3h-338c-1.6,0-3-1.4-3-3v-600c0-1.6,1.4-3,3-3h338c1.7,0,3,1.4,3,3V684.4z"/>
		<path class="st4" d="M362.8,684.4c0,1.6-1.3,3-3,3h-338c-1.6,0-3-1.4-3-3v-600c0-1.6,1.4-3,3-3h338c1.7,0,3,1.4,3,3V684.4z"/>
	</g>
	<circle class="st5" cx="128.6" cy="43.2" r="6.6"/>
	<circle class="st5" cx="190.2" cy="16.8" r="4"/>
	<circle class="st6" cx="190.2" cy="732.4" r="30.1"/>
	<circle class="st7" cx="190.2" cy="732.4" r="26.4"/>
	<path class="st8" d="M219.8,43.4c0,1.6-1.3,3-3,3h-54.1c-1.6,0-3-1.3-3-3v-0.1c0-1.6,1.3-3,3-3h54.1
		C218.5,40.4,219.8,41.7,219.8,43.4L219.8,43.4z"/>
</g>
</svg>
