<svg xmlns="http://www.w3.org/2000/svg" viewBox="0 0 159.93412 40.17235"><defs><style>.a{fill:none;stroke:#ffc90e;stroke-miterlimit:10;}.b{fill:#ffc90e;}.c{fill:#fff;}</style></defs><title>logo</title><path class="a" d="M230.78418,411.32188c.01594.375.02277.53318.02277.83624,0,.69144-.01292,1.31967-.02549,1.92729-.0235,1.13734-.04377,2.11967.026,3.15985a16.27387,16.27387,0,0,0,1.99442,6.51311c.96928,1.78487,1.95759,3.58087,2.91334,5.31771,1.43716,2.61139,2.92309,5.31174,4.43445,8.136l.0068.01271c.3934.73521,1.12572,2.10359.90745,2.80884-.266.85928-1.90607.9587-3.1165.9587-.5677.00007-20.798.00288-21.37351.00288-1.20638,0-2.84155-.09976-3.1108-.96207-.214-.68573.35472-1.66649.77-2.38267.09117-.15733.17733-.30594.248-.43888,2.48723-4.67506,4.61583-8.6136,7.24425-13.45327a15.254,15.254,0,0,0,1.99421-6.40833c.09021-1.24032.05977-2.64.0303-3.99358-.01463-.6709-.02975-1.36454-.02975-2.02629" transform="translate(-212.91646 -401.32291)"/><path class="b" d="M223.21643,411.3319c-.00659-.843-.01293-1.71449.98575-1.96609a9.39116,9.39116,0,0,1,1.36879-.15487c1.38351-.10124,3.95688-.28981,3.97109-1.29259.001-.064-.14466-.225-.54262-.37917-.0178-.007-.03526-.01325-.05358-.01979-1.55868.97086-4.00851,1.5593-5.00742.82966-.70977-.51673-.63-1.00375-.5201-1.24723.49555-1.09383,3.68346-1.03953,5.1821-.70439.06442.01343.12674.02871.18658.04367a2.40927,2.40927,0,0,0,.44519-.43394.58756.58756,0,0,0-.10439-.93929,6.22616,6.22616,0,0,1-4.88683.52534c-.24716-.0828-.99889-.334-1.05078-.94589-.02093-.24923.07006-.60967.62444-.90629a6.761,6.761,0,0,1,5.1478.05877c.16552-.56807-.80548-1.28273-1.2459-1.57247a.49269.49269,0,0,1,.2791-.90435.486.486,0,0,1,.2634.08125c1.86043,1.22519,1.87594,2.25361,1.56135,2.901l-.02049.041a1.54894,1.54894,0,0,1,.21684,2.25823,2.59209,2.59209,0,0,1-.20454.236,1.23446,1.23446,0,0,1,.716,1.09279c-.02781,1.90555-2.95055,2.119-4.885,2.26138a9.73819,9.73819,0,0,0-1.19995.12645c-.196.0502-.23423.109-.22686,1.01073m3.88077-6.82827a6.1506,6.1506,0,0,0-3.75933.07161c.05554.02587.12721.05279.21535.08356A5.59623,5.59623,0,0,0,228.0972,404.50363Zm-.71256,2.70045a7.211,7.211,0,0,0-2.98148.25472c.02864.0259.06608.05725.11591.09415C224.94048,407.8598,226.22855,407.66051,227.38465,407.20408Z" transform="translate(-212.91646 -401.32291)"/><path class="b" d="M227.26009,420.72567a26.21172,26.21172,0,0,0,1.36182,6.041,14.56237,14.56237,0,0,0,2.5971,4.59873c.23591.27839,1.4011,1.758.34666,1.34642-.71217-.27716-1.05557-1.04-1.74091-1.35427-1.307-.60039-2.08642.64764-1.94895,1.85848.06631.58.54969,1.96844-.1008,2.40277-.5687.37929-1.18943-1.08351-1.3162-1.401-.24789-.62381-.33767-2.79369-1.50463-1.83852-.43144.35222-.70477.874-1.17659,1.18292-.47415.31-.656-.431-.63824-.74432a6.60725,6.60725,0,0,1,.5151-1.76641.25984.25984,0,0,0-.4909-.16967c-.24907.68489-1.2439,3.173.334,3.26342a1.4183,1.4183,0,0,0,1.05666-.578c.19584-.20191.37439-.42168.56688-.62726.44194-.47461.486.02608.57285.47185.16935.87031.77442,2.87171,1.99986,2.75874,1.251-.115.86041-2.04983.7193-2.8052a1.53767,1.53767,0,0,1,.47992-1.61235c.54536-.31988,1.20062.42787,1.51121.76367a2.69392,2.69392,0,0,0,1.30326.78514c1.18612.28416.78179-1.02338.42339-1.583-.52327-.81434-1.21782-1.49276-1.72776-2.32392a15.188,15.188,0,0,1-1.24259-2.65043,24.67771,24.67771,0,0,1-1.19892-4.8705c-.07228-.46989-1.18153-11.47473-1.20158-11.77236a.2243.2243,0,1,0-.44394.04108Z" transform="translate(-212.91646 -401.32291)"/><path class="c" d="M260.58447,426.916a5.72343,5.72343,0,0,0,3.959-1.61719l.65381.6543a6.59283,6.59283,0,1,1,.05176-9.34668l-.6543.6543a5.67135,5.67135,0,1,0-4.01025,9.65527Z" transform="translate(-212.91646 -401.32291)"/><path class="c" d="M273.78516,418.22461v.86035a3.89041,3.89041,0,0,0-3.97607,3.873v4.57813h-.86035v-9.019h.86035v2.28906C270.05029,419.70459,272.04688,418.22461,273.78516,418.22461Z" transform="translate(-212.91646 -401.32291)"/><path class="c" d="M280.49756,426.89941a3.89761,3.89761,0,0,0,1.96191-.53418l.43018.74023a4.66783,4.66783,0,0,1-2.39209.6543,4.76778,4.76778,0,1,1,4.50928-6.21338l-8.46826,1.48A3.87485,3.87485,0,0,0,280.49756,426.89941Zm3.27-6.00684a3.91831,3.91831,0,0,0-7.12549,1.25586Z" transform="translate(-212.91646 -401.32291)"/><path class="c" d="M291.70166,418.22461a3.54519,3.54519,0,0,1,3.09814,1.49707v-1.20459h.86084v9.019h-.86084v-1.30762a3.45689,3.45689,0,0,1-2.99463,1.53125,4.76786,4.76786,0,1,1-.10352-9.53516Zm.01709.86035a3.9074,3.9074,0,1,0,3.08105,6.36816v-4.92236A3.89435,3.89435,0,0,0,291.71875,419.085Z" transform="translate(-212.91646 -401.32291)"/><path class="c" d="M299.79,424.59277v-5.21484h-.86084v-.86084H299.79v-2.54736h.86133v2.54736h4.06152v.86084h-4.06152v5.19824a2.30159,2.30159,0,0,0,2.35742,2.28906,2.42081,2.42081,0,0,0,1.1875-.32715l.43066.73926a3.12041,3.12041,0,0,1-1.60059.44824A3.15422,3.15422,0,0,1,299.79,424.59277Z" transform="translate(-212.91646 -401.32291)"/><path class="c" d="M308.63672,415.38477a.82617.82617,0,1,1-.82617.82617A.83767.83767,0,0,1,308.63672,415.38477Zm-.41309,12.15137v-9.019h.86035v9.019Z" transform="translate(-212.91646 -401.32291)"/><path class="c" d="M316.65723,425.88379l3.58008-7.65918.77441.36133-4.35449,9.3291-4.35547-9.3291.77539-.36133Z" transform="translate(-212.91646 -401.32291)"/><path class="c" d="M327.792,426.89941a3.89761,3.89761,0,0,0,1.96191-.53418l.43066.74023a4.66827,4.66827,0,0,1-2.39258.6543,4.76778,4.76778,0,1,1,4.50977-6.21338l-8.46875,1.48A3.87516,3.87516,0,0,0,327.792,426.89941Zm3.27051-6.00684a3.91867,3.91867,0,0,0-7.126,1.25586Z" transform="translate(-212.91646 -401.32291)"/><path class="c" d="M342.02539,415.00586h.92969v11.60059h6.60938v.92969h-7.53906Z" transform="translate(-212.91646 -401.32291)"/><path class="c" d="M356.08691,418.22461a3.5467,3.5467,0,0,1,3.09863,1.49707v-1.20459h.86035v9.019h-.86035v-1.30762a3.45835,3.45835,0,0,1-2.99512,1.53125,4.76786,4.76786,0,0,1-.10352-9.53516Zm.01758.86035a3.90739,3.90739,0,1,0,3.08105,6.36816v-4.92236A3.89653,3.89653,0,0,0,356.10449,419.085Z" transform="translate(-212.91646 -401.32291)"/><path class="c" d="M368.03125,427.75977a3.45835,3.45835,0,0,1-2.99512-1.53125v1.30762h-.86035V413.7666h.86035v5.95508a3.5467,3.5467,0,0,1,3.09863-1.49707,4.76786,4.76786,0,0,1-.10352,9.53516Zm-2.99512-2.30664a3.9112,3.9112,0,1,0,3.08105-6.36816,3.89508,3.89508,0,0,0-3.08105,1.4458Z" transform="translate(-212.91646 -401.32291)"/></svg>